<svg class="svg-icon" style="width: 1em; height: 1em;vertical-align: middle;fill: currentColor;overflow: hidden;" viewBox="0 0 1024 1024" version="1.1" xmlns="http://www.w3.org/2000/svg"><path d="M867.995 459.647h-711.99c-27.921 0-52.353 24.434-52.353 52.353s24.434 52.353 52.353 52.353h711.99c27.921 0 52.353-24.434 52.353-52.353s-24.434-52.353-52.353-52.353z"  /><path d="M867.995 763.291h-711.99c-27.921 0-52.353 24.434-52.353 52.353s24.434 52.353 52.353 52.353h711.99c27.921 0 52.353-24.434 52.353-52.353s-24.434-52.353-52.353-52.353z"  /><path d="M156.005 260.709h711.99c27.921 0 52.353-24.434 52.353-52.353s-24.434-52.353-52.353-52.353h-711.99c-27.921 0-52.353 24.434-52.353 52.353s24.434 52.353 52.353 52.353z"  /></svg>